<svg width="400" height="300" viewBox="0 0 400 300" fill="none" xmlns="http://www.w3.org/2000/svg">
<path d="M188.797 77.2783C187.11 77.2783 185.74 78.6476 185.74 80.3343C185.74 82.021 187.11 83.3906 188.797 83.3906C190.483 83.3906 191.853 82.021 191.853 80.3343C191.853 78.6476 190.483 77.2783 188.797 77.2783ZM199.917 77.2783C198.23 77.2783 196.861 78.6476 196.861 80.3343C196.861 82.021 198.23 83.3906 199.917 83.3906C201.604 83.3906 202.973 82.021 202.973 80.3343C202.973 78.6476 201.604 77.2783 199.917 77.2783ZM211.037 77.2783C209.351 77.2783 207.981 78.6476 207.981 80.3343C207.981 82.021 209.351 83.3906 211.037 83.3906C212.724 83.3906 214.093 82.021 214.093 80.3343C214.093 78.6476 212.724 77.2783 211.037 77.2783ZM166.556 88.3942C164.866 88.3942 163.495 89.7656 163.495 91.4548C163.495 93.144 164.866 94.5157 166.556 94.5157C168.245 94.5157 169.616 93.144 169.616 91.4548C169.616 89.7656 168.245 88.3942 166.556 88.3942ZM233.278 88.3942C231.589 88.3942 230.218 89.7656 230.218 91.4548C230.218 93.144 231.589 94.5157 233.278 94.5157C234.968 94.5157 236.339 93.144 236.339 91.4548C236.339 89.7656 234.968 88.3942 233.278 88.3942ZM177.676 88.3985C175.989 88.3985 174.62 89.768 174.62 91.4548C174.62 93.1417 175.989 94.5114 177.676 94.5114C179.363 94.5114 180.732 93.1417 180.732 91.4548C180.732 89.768 179.363 88.3985 177.676 88.3985ZM222.158 88.3985C220.471 88.3985 219.102 89.768 219.102 91.4548C219.102 93.1417 220.471 94.5114 222.158 94.5114C223.845 94.5114 225.214 93.1417 225.214 91.4548C225.214 89.768 223.845 88.3985 222.158 88.3985ZM188.797 88.3988C187.11 88.3988 185.74 89.7681 185.74 91.4548C185.74 93.1415 187.11 94.5109 188.797 94.5109C190.483 94.5109 191.853 93.1415 191.853 91.4548C191.853 89.7681 190.483 88.3988 188.797 88.3988ZM199.917 88.3988C198.23 88.3988 196.861 89.7681 196.861 91.4548C196.861 93.1415 198.23 94.5109 199.917 94.5109C201.604 94.5109 202.973 93.1415 202.973 91.4548C202.973 89.7681 201.604 88.3988 199.917 88.3988ZM211.037 88.3988C209.351 88.3988 207.981 89.7681 207.981 91.4548C207.981 93.1415 209.351 94.5109 211.037 94.5109C212.724 94.5109 214.093 93.1415 214.093 91.4548C214.093 89.7681 212.724 88.3988 211.037 88.3988ZM155.435 99.5147C153.746 99.5147 152.374 100.886 152.374 102.575C152.374 104.265 153.746 105.636 155.435 105.636C157.124 105.636 158.496 104.265 158.496 102.575C158.496 100.886 157.124 99.5147 155.435 99.5147ZM244.399 99.5147C242.71 99.5147 241.338 100.886 241.338 102.575C241.338 104.265 242.71 105.636 244.399 105.636C246.088 105.636 247.46 104.265 247.46 102.575C247.46 100.886 246.088 99.5147 244.399 99.5147ZM166.556 99.5188C164.869 99.5188 163.499 100.888 163.499 102.575C163.499 104.262 164.869 105.632 166.556 105.632C168.243 105.632 169.612 104.262 169.612 102.575C169.612 100.888 168.243 99.5188 166.556 99.5188ZM233.278 99.5188C231.591 99.5188 230.222 100.888 230.222 102.575C230.222 104.262 231.591 105.632 233.278 105.632C234.965 105.632 236.335 104.262 236.335 102.575C236.335 100.888 234.965 99.5188 233.278 99.5188ZM177.676 99.5193C175.989 99.5193 174.62 100.889 174.62 102.576C174.62 104.262 175.989 105.632 177.676 105.632C179.363 105.632 180.732 104.262 180.732 102.576C180.732 100.889 179.363 99.5193 177.676 99.5193ZM188.797 99.5193C187.11 99.5193 185.74 100.889 185.74 102.576C185.74 104.262 187.11 105.632 188.797 105.632C190.483 105.632 191.853 104.262 191.853 102.576C191.853 100.889 190.483 99.5193 188.797 99.5193ZM199.917 99.5193C198.23 99.5193 196.861 100.889 196.861 102.576C196.861 104.262 198.23 105.632 199.917 105.632C201.604 105.632 202.973 104.262 202.973 102.576C202.973 100.889 201.604 99.5193 199.917 99.5193ZM211.037 99.5193C209.351 99.5193 207.981 100.889 207.981 102.576C207.981 104.262 209.351 105.632 211.037 105.632C212.724 105.632 214.093 104.262 214.093 102.576C214.093 100.889 212.724 99.5193 211.037 99.5193ZM222.158 99.5193C220.471 99.5193 219.102 100.889 219.102 102.576C219.102 104.262 220.471 105.632 222.158 105.632C223.845 105.632 225.214 104.262 225.214 102.576C225.214 100.889 223.845 99.5193 222.158 99.5193ZM155.435 110.64C153.748 110.64 152.379 112.009 152.379 113.696C152.379 115.383 153.748 116.752 155.435 116.752C157.122 116.752 158.491 115.383 158.491 113.696C158.491 112.009 157.122 110.64 155.435 110.64ZM244.399 110.64C242.712 110.64 241.343 112.009 241.343 113.696C241.343 115.383 242.712 116.752 244.399 116.752C246.086 116.752 247.455 115.383 247.455 113.696C247.455 112.009 246.086 110.64 244.399 110.64ZM166.556 110.64C164.869 110.64 163.499 112.009 163.499 113.696C163.499 115.382 164.869 116.752 166.556 116.752C168.242 116.752 169.612 115.382 169.612 113.696C169.612 112.009 168.242 110.64 166.556 110.64ZM177.676 110.64C175.989 110.64 174.62 112.009 174.62 113.696C174.62 115.382 175.989 116.752 177.676 116.752C179.363 116.752 180.732 115.382 180.732 113.696C180.732 112.009 179.363 110.64 177.676 110.64ZM188.797 110.64C187.11 110.64 185.74 112.009 185.74 113.696C185.74 115.382 187.11 116.752 188.797 116.752C190.483 116.752 191.853 115.382 191.853 113.696C191.853 112.009 190.483 110.64 188.797 110.64ZM199.917 110.64C198.23 110.64 196.861 112.009 196.861 113.696C196.861 115.382 198.23 116.752 199.917 116.752C201.604 116.752 202.973 115.382 202.973 113.696C202.973 112.009 201.604 110.64 199.917 110.64ZM211.037 110.64C209.351 110.64 207.981 112.009 207.981 113.696C207.981 115.382 209.351 116.752 211.037 116.752C212.724 116.752 214.093 115.382 214.093 113.696C214.093 112.009 212.724 110.64 211.037 110.64ZM222.158 110.64C220.471 110.64 219.102 112.009 219.102 113.696C219.102 115.382 220.471 116.752 222.158 116.752C223.845 116.752 225.214 115.382 225.214 113.696C225.214 112.009 223.845 110.64 222.158 110.64ZM233.278 110.64C231.592 110.64 230.222 112.009 230.222 113.696C230.222 115.382 231.592 116.752 233.278 116.752C234.965 116.752 236.335 115.382 236.335 113.696C236.335 112.009 234.965 110.64 233.278 110.64ZM144.315 121.76C142.628 121.76 141.258 123.13 141.258 124.816C141.258 126.503 142.628 127.872 144.315 127.872C146.001 127.872 147.371 126.503 147.371 124.816C147.371 123.13 146.001 121.76 144.315 121.76ZM155.435 121.76C153.748 121.76 152.379 123.13 152.379 124.816C152.379 126.503 153.748 127.872 155.435 127.872C157.122 127.872 158.491 126.503 158.491 124.816C158.491 123.13 157.122 121.76 155.435 121.76ZM166.556 121.76C164.869 121.76 163.499 123.13 163.499 124.816C163.499 126.503 164.869 127.872 166.556 127.872C168.242 127.872 169.612 126.503 169.612 124.816C169.612 123.13 168.242 121.76 166.556 121.76ZM177.676 121.76C175.989 121.76 174.62 123.13 174.62 124.816C174.62 126.503 175.989 127.872 177.676 127.872C179.363 127.872 180.732 126.503 180.732 124.816C180.732 123.13 179.363 121.76 177.676 121.76ZM188.797 121.76C187.11 121.76 185.74 123.13 185.74 124.816C185.74 126.503 187.11 127.872 188.797 127.872C190.483 127.872 191.853 126.503 191.853 124.816C191.853 123.13 190.483 121.76 188.797 121.76ZM199.917 121.76C198.23 121.76 196.861 123.13 196.861 124.816C196.861 126.503 198.23 127.872 199.917 127.872C201.604 127.872 202.973 126.503 202.973 124.816C202.973 123.13 201.604 121.76 199.917 121.76ZM211.037 121.76C209.351 121.76 207.981 123.13 207.981 124.816C207.981 126.503 209.351 127.872 211.037 127.872C212.724 127.872 214.093 126.503 214.093 124.816C214.093 123.13 212.724 121.76 211.037 121.76ZM222.158 121.76C220.471 121.76 219.102 123.13 219.102 124.816C219.102 126.503 220.471 127.872 222.158 127.872C223.845 127.872 225.214 126.503 225.214 124.816C225.214 123.13 223.845 121.76 222.158 121.76ZM233.278 121.76C231.592 121.76 230.222 123.13 230.222 124.816C230.222 126.503 231.592 127.872 233.278 127.872C234.965 127.872 236.335 126.503 236.335 124.816C236.335 123.13 234.965 121.76 233.278 121.76ZM244.399 121.76C242.712 121.76 241.343 123.13 241.343 124.816C241.343 126.503 242.712 127.872 244.399 127.872C246.086 127.872 247.455 126.503 247.455 124.816C247.455 123.13 246.086 121.76 244.399 121.76ZM255.519 121.76C253.833 121.76 252.463 123.13 252.463 124.816C252.463 126.503 253.833 127.872 255.519 127.872C257.206 127.872 258.576 126.503 258.576 124.816C258.576 123.13 257.206 121.76 255.519 121.76ZM144.315 132.881C142.628 132.881 141.258 134.25 141.258 135.937C141.258 137.624 142.628 138.993 144.315 138.993C146.001 138.993 147.371 137.624 147.371 135.937C147.371 134.25 146.001 132.881 144.315 132.881ZM155.435 132.881C153.748 132.881 152.379 134.25 152.379 135.937C152.379 137.624 153.748 138.993 155.435 138.993C157.122 138.993 158.491 137.624 158.491 135.937C158.491 134.25 157.122 132.881 155.435 132.881ZM166.556 132.881C164.869 132.881 163.499 134.25 163.499 135.937C163.499 137.624 164.869 138.993 166.556 138.993C168.242 138.993 169.612 137.624 169.612 135.937C169.612 134.25 168.242 132.881 166.556 132.881ZM177.676 132.881C175.989 132.881 174.62 134.25 174.62 135.937C174.62 137.624 175.989 138.993 177.676 138.993C179.363 138.993 180.732 137.624 180.732 135.937C180.732 134.25 179.363 132.881 177.676 132.881ZM188.797 132.881C187.11 132.881 185.74 134.25 185.74 135.937C185.74 137.624 187.11 138.993 188.797 138.993C190.483 138.993 191.853 137.624 191.853 135.937C191.853 134.25 190.483 132.881 188.797 132.881ZM199.917 132.881C198.23 132.881 196.861 134.25 196.861 135.937C196.861 137.624 198.23 138.993 199.917 138.993C201.604 138.993 202.973 137.624 202.973 135.937C202.973 134.25 201.604 132.881 199.917 132.881ZM211.037 132.881C209.351 132.881 207.981 134.25 207.981 135.937C207.981 137.624 209.351 138.993 211.037 138.993C212.724 138.993 214.093 137.624 214.093 135.937C214.093 134.25 212.724 132.881 211.037 132.881ZM222.158 132.881C220.471 132.881 219.102 134.25 219.102 135.937C219.102 137.624 220.471 138.993 222.158 138.993C223.845 138.993 225.214 137.624 225.214 135.937C225.214 134.25 223.845 132.881 222.158 132.881ZM233.278 132.881C231.592 132.881 230.222 134.25 230.222 135.937C230.222 137.624 231.592 138.993 233.278 138.993C234.965 138.993 236.335 137.624 236.335 135.937C236.335 134.25 234.965 132.881 233.278 132.881ZM244.399 132.881C242.712 132.881 241.343 134.25 241.343 135.937C241.343 137.624 242.712 138.993 244.399 138.993C246.086 138.993 247.455 137.624 247.455 135.937C247.455 134.25 246.086 132.881 244.399 132.881ZM255.519 132.881C253.833 132.881 252.463 134.25 252.463 135.937C252.463 137.624 253.833 138.993 255.519 138.993C257.206 138.993 258.576 137.624 258.576 135.937C258.576 134.25 257.206 132.881 255.519 132.881ZM144.315 144.001C142.628 144.001 141.258 145.371 141.258 147.057C141.258 148.744 142.628 150.113 144.315 150.113C146.001 150.113 147.371 148.744 147.371 147.057C147.371 145.371 146.001 144.001 144.315 144.001ZM155.435 144.001C153.748 144.001 152.379 145.371 152.379 147.057C152.379 148.744 153.748 150.113 155.435 150.113C157.122 150.113 158.491 148.744 158.491 147.057C158.491 145.371 157.122 144.001 155.435 144.001ZM166.556 144.001C164.869 144.001 163.499 145.371 163.499 147.057C163.499 148.744 164.869 150.113 166.556 150.113C168.242 150.113 169.612 148.744 169.612 147.057C169.612 145.371 168.242 144.001 166.556 144.001ZM177.676 144.001C175.989 144.001 174.62 145.371 174.62 147.057C174.62 148.744 175.989 150.113 177.676 150.113C179.363 150.113 180.732 148.744 180.732 147.057C180.732 145.371 179.363 144.001 177.676 144.001ZM188.797 144.001C187.11 144.001 185.74 145.371 185.74 147.057C185.74 148.744 187.11 150.113 188.797 150.113C190.483 150.113 191.853 148.744 191.853 147.057C191.853 145.371 190.483 144.001 188.797 144.001ZM199.917 144.001C198.23 144.001 196.861 145.371 196.861 147.057C196.861 148.744 198.23 150.113 199.917 150.113C201.604 150.113 202.973 148.744 202.973 147.057C202.973 145.371 201.604 144.001 199.917 144.001ZM211.037 144.001C209.351 144.001 207.981 145.371 207.981 147.057C207.981 148.744 209.351 150.113 211.037 150.113C212.724 150.113 214.093 148.744 214.093 147.057C214.093 145.371 212.724 144.001 211.037 144.001ZM222.158 144.001C220.471 144.001 219.102 145.371 219.102 147.057C219.102 148.744 220.471 150.113 222.158 150.113C223.845 150.113 225.214 148.744 225.214 147.057C225.214 145.371 223.845 144.001 222.158 144.001ZM233.278 144.001C231.592 144.001 230.222 145.371 230.222 147.057C230.222 148.744 231.592 150.113 233.278 150.113C234.965 150.113 236.335 148.744 236.335 147.057C236.335 145.371 234.965 144.001 233.278 144.001ZM244.399 144.001C242.712 144.001 241.343 145.371 241.343 147.057C241.343 148.744 242.712 150.113 244.399 150.113C246.086 150.113 247.455 148.744 247.455 147.057C247.455 145.371 246.086 144.001 244.399 144.001ZM255.519 144.001C253.833 144.001 252.463 145.371 252.463 147.057C252.463 148.744 253.833 150.113 255.519 150.113C257.206 150.113 258.576 148.744 258.576 147.057C258.576 145.371 257.206 144.001 255.519 144.001ZM155.435 155.121C153.748 155.121 152.379 156.491 152.379 158.178C152.379 159.865 153.748 161.234 155.435 161.234C157.122 161.234 158.491 159.865 158.491 158.178C158.491 156.491 157.122 155.121 155.435 155.121ZM244.399 155.121C242.712 155.121 241.343 156.491 241.343 158.178C241.343 159.865 242.712 161.234 244.399 161.234C246.086 161.234 247.455 159.865 247.455 158.178C247.455 156.491 246.086 155.121 244.399 155.121ZM166.556 155.121C164.869 155.121 163.499 156.491 163.499 158.178C163.499 159.864 164.869 161.234 166.556 161.234C168.242 161.234 169.612 159.864 169.612 158.178C169.612 156.491 168.242 155.121 166.556 155.121ZM177.676 155.121C175.989 155.121 174.62 156.491 174.62 158.178C174.62 159.864 175.989 161.234 177.676 161.234C179.363 161.234 180.732 159.864 180.732 158.178C180.732 156.491 179.363 155.121 177.676 155.121ZM188.797 155.121C187.11 155.121 185.74 156.491 185.74 158.178C185.74 159.864 187.11 161.234 188.797 161.234C190.483 161.234 191.853 159.864 191.853 158.178C191.853 156.491 190.483 155.121 188.797 155.121ZM199.917 155.121C198.23 155.121 196.861 156.491 196.861 158.178C196.861 159.864 198.23 161.234 199.917 161.234C201.604 161.234 202.973 159.864 202.973 158.178C202.973 156.491 201.604 155.121 199.917 155.121ZM211.037 155.121C209.351 155.121 207.981 156.491 207.981 158.178C207.981 159.864 209.351 161.234 211.037 161.234C212.724 161.234 214.093 159.864 214.093 158.178C214.093 156.491 212.724 155.121 211.037 155.121ZM222.158 155.121C220.471 155.121 219.102 156.491 219.102 158.178C219.102 159.864 220.471 161.234 222.158 161.234C223.845 161.234 225.214 159.864 225.214 158.178C225.214 156.491 223.845 155.121 222.158 155.121ZM233.278 155.121C231.592 155.121 230.222 156.491 230.222 158.178C230.222 159.864 231.592 161.234 233.278 161.234C234.965 161.234 236.335 159.864 236.335 158.178C236.335 156.491 234.965 155.121 233.278 155.121ZM155.435 166.238C153.746 166.238 152.374 167.609 152.374 169.298C152.374 170.987 153.746 172.359 155.435 172.359C157.124 172.359 158.496 170.987 158.496 169.298C158.496 167.609 157.124 166.238 155.435 166.238ZM244.399 166.238C242.71 166.238 241.338 167.609 241.338 169.298C241.338 170.987 242.71 172.359 244.399 172.359C246.088 172.359 247.46 170.987 247.46 169.298C247.46 167.609 246.088 166.238 244.399 166.238ZM166.556 166.242C164.869 166.242 163.499 167.611 163.499 169.298C163.499 170.985 164.869 172.355 166.556 172.355C168.243 172.355 169.612 170.985 169.612 169.298C169.612 167.611 168.243 166.242 166.556 166.242ZM233.278 166.242C231.591 166.242 230.222 167.611 230.222 169.298C230.222 170.985 231.591 172.355 233.278 172.355C234.965 172.355 236.335 170.985 236.335 169.298C236.335 167.611 234.965 166.242 233.278 166.242ZM177.676 166.242C175.989 166.242 174.62 167.612 174.62 169.298C174.62 170.985 175.989 172.355 177.676 172.355C179.363 172.355 180.732 170.985 180.732 169.298C180.732 167.612 179.363 166.242 177.676 166.242ZM188.797 166.242C187.11 166.242 185.74 167.612 185.74 169.298C185.74 170.985 187.11 172.355 188.797 172.355C190.483 172.355 191.853 170.985 191.853 169.298C191.853 167.612 190.483 166.242 188.797 166.242ZM199.917 166.242C198.23 166.242 196.861 167.612 196.861 169.298C196.861 170.985 198.23 172.355 199.917 172.355C201.604 172.355 202.973 170.985 202.973 169.298C202.973 167.612 201.604 166.242 199.917 166.242ZM211.037 166.242C209.351 166.242 207.981 167.612 207.981 169.298C207.981 170.985 209.351 172.355 211.037 172.355C212.724 172.355 214.093 170.985 214.093 169.298C214.093 167.612 212.724 166.242 211.037 166.242ZM222.158 166.242C220.471 166.242 219.102 167.612 219.102 169.298C219.102 170.985 220.471 172.355 222.158 172.355C223.845 172.355 225.214 170.985 225.214 169.298C225.214 167.612 223.845 166.242 222.158 166.242ZM166.556 177.358C164.866 177.358 163.495 178.73 163.495 180.419C163.495 182.108 164.866 183.479 166.556 183.479C168.245 183.479 169.616 182.108 169.616 180.419C169.616 178.73 168.245 177.358 166.556 177.358ZM233.278 177.358C231.589 177.358 230.218 178.73 230.218 180.419C230.218 182.108 231.589 183.479 233.278 183.479C234.968 183.479 236.339 182.108 236.339 180.419C236.339 178.73 234.968 177.358 233.278 177.358ZM177.676 177.362C175.989 177.362 174.62 178.732 174.62 180.419C174.62 182.106 175.989 183.475 177.676 183.475C179.363 183.475 180.732 182.106 180.732 180.419C180.732 178.732 179.363 177.362 177.676 177.362ZM222.158 177.362C220.471 177.362 219.102 178.732 219.102 180.419C219.102 182.106 220.471 183.475 222.158 183.475C223.845 183.475 225.214 182.106 225.214 180.419C225.214 178.732 223.845 177.362 222.158 177.362ZM188.797 177.362C187.11 177.362 185.74 178.732 185.74 180.419C185.74 182.105 187.11 183.475 188.797 183.475C190.483 183.475 191.853 182.105 191.853 180.419C191.853 178.732 190.483 177.362 188.797 177.362ZM199.917 177.362C198.23 177.362 196.861 178.732 196.861 180.419C196.861 182.105 198.23 183.475 199.917 183.475C201.604 183.475 202.973 182.105 202.973 180.419C202.973 178.732 201.604 177.362 199.917 177.362ZM211.037 177.362C209.351 177.362 207.981 178.732 207.981 180.419C207.981 182.105 209.351 183.475 211.037 183.475C212.724 183.475 214.093 182.105 214.093 180.419C214.093 178.732 212.724 177.362 211.037 177.362ZM188.803 188.482C187.117 188.482 185.748 189.851 185.748 191.536C185.748 193.222 187.117 194.591 188.803 194.591C190.489 194.591 191.858 193.222 191.858 191.536C191.858 189.851 190.489 188.482 188.803 188.482ZM199.917 188.483C198.23 188.483 196.861 189.853 196.861 191.539C196.861 193.226 198.23 194.595 199.917 194.595C201.604 194.595 202.973 193.226 202.973 191.539C202.973 189.853 201.604 188.483 199.917 188.483ZM211.037 188.483C209.351 188.483 207.981 189.853 207.981 191.539C207.981 193.226 209.351 194.595 211.037 194.595C212.724 194.595 214.093 193.226 214.093 191.539C214.093 189.853 212.724 188.483 211.037 188.483Z" fill="white"/>
<path d="M271.052 210.184C270.965 210.184 270.876 210.186 270.787 210.188H270.768C268.534 210.25 266.21 211.037 264.868 212.252C264.548 212.541 264.274 212.87 264.046 213.218C263.481 214.08 263.185 215.075 263.185 216.074C263.185 216.175 263.189 216.276 263.194 216.377C263.266 217.69 263.82 218.953 264.868 219.902C266.129 221.043 267.92 221.73 269.892 221.923C271.777 222.108 273.714 221.807 275.039 221.057C276.348 220.316 277.255 219.07 277.567 217.7C277.573 217.673 277.577 217.642 277.584 217.615L276.05 217.615C275.805 218.428 274.982 219.359 274.202 219.733C273.477 220.079 272.541 220.446 271.049 220.426C271.023 220.425 270.809 220.419 270.725 220.414C270.472 220.398 270.224 220.368 269.979 220.315C269.113 220.127 268.318 219.738 267.726 219.151C266.936 218.368 266.52 217.256 266.52 216.075C266.52 214.89 266.936 213.781 267.726 212.99C268.526 212.19 269.71 211.778 270.95 211.756H271.011H271.177C272.548 211.777 273.346 211.958 274.371 212.477C275.018 212.804 275.927 213.747 276.119 214.707H277.538V210.831H276.064V211.247C276.064 211.319 276.026 211.4 275.954 211.441C275.886 211.478 275.787 211.483 275.656 211.417C275.019 211.089 273.334 210.188 271.052 210.184ZM128.37 210.201C127.072 210.195 125.593 210.455 124.349 211.01C123.19 211.526 122.236 212.36 122.236 213.748C122.236 214.991 123.03 215.722 123.005 215.698C123.347 216.008 123.889 216.541 125.308 216.848C125.939 216.984 127.291 217.194 128.645 217.346C129.98 217.496 131.303 217.62 131.841 217.752C132.271 217.857 132.979 218.012 132.979 218.811C132.979 219.618 132.226 219.857 132.093 219.91C131.959 219.964 131.058 220.376 129.427 220.376C128.224 220.376 126.783 220.016 126.255 219.836C125.648 219.63 125.018 219.325 124.423 218.598C124.276 218.418 124.048 217.925 124.048 217.437H122.564V221.56H124.203V221.002C124.203 220.947 124.289 220.681 124.557 220.809C124.896 220.971 125.901 221.36 126.957 221.581C127.814 221.76 128.37 221.887 129.436 221.887C131.184 221.887 132.121 221.605 132.766 221.42C133.387 221.242 134.141 220.925 134.745 220.441C135.075 220.176 135.801 219.501 135.801 218.272C135.801 217.089 135.175 216.355 134.946 216.136C134.636 215.838 134.277 215.597 133.889 215.415C133.549 215.256 133.02 215.066 132.587 214.964C131.735 214.762 129.832 214.494 128.925 214.404C127.969 214.308 126.307 214.162 125.649 213.959C125.446 213.896 125.032 213.699 125.032 213.226C125.032 212.891 125.227 212.6 125.593 212.363C126.171 211.991 127.373 211.773 128.604 211.773C130.071 211.773 131.308 212.094 132.093 212.447C132.367 212.57 132.675 212.744 132.926 212.947C133.209 213.177 133.598 213.652 133.743 214.315H135.068V210.725H133.593V211.141C133.593 211.28 133.454 211.449 133.187 211.311C132.523 210.967 130.662 210.213 128.37 210.201ZM146.097 210.201C143.783 210.201 141.316 211.001 139.918 212.269C138.805 213.279 138.233 214.686 138.233 216.092C138.233 217.512 138.789 218.897 139.918 219.919C141.419 221.278 143.674 221.998 146.097 221.998C148.534 221.998 150.834 221.28 152.293 219.919C153.376 218.908 153.952 217.456 153.952 216.092C153.952 214.679 153.411 213.293 152.293 212.276C150.726 210.852 148.675 210.201 146.097 210.201ZM243.431 210.201C242.135 210.195 240.656 210.455 239.412 211.01C238.253 211.526 237.297 212.36 237.297 213.748C237.297 214.991 238.092 215.694 238.068 215.669C238.409 215.982 238.951 216.478 240.37 216.783C241.001 216.918 242.368 217.108 243.722 217.259C245.056 217.407 246.365 217.579 246.904 217.709C247.334 217.813 248.04 218.012 248.04 218.811C248.04 219.618 247.289 219.855 247.157 219.91C247.021 219.967 246.121 220.376 244.49 220.376C243.287 220.376 241.846 220.016 241.317 219.835C240.711 219.627 240.079 219.325 239.485 218.598C239.337 218.417 239.11 217.923 239.11 217.437H237.628V221.56H239.266V221.002C239.266 220.947 239.352 220.681 239.617 220.809C239.958 220.974 240.962 221.36 242.02 221.581C242.878 221.76 243.431 221.885 244.499 221.885C246.246 221.885 247.183 221.603 247.828 221.42C248.451 221.243 249.202 220.925 249.808 220.441C250.138 220.177 250.863 219.501 250.863 218.272C250.863 217.089 250.236 216.403 250.009 216.184C249.699 215.886 249.339 215.664 248.951 215.482C248.61 215.323 248.116 215.171 247.684 215.07C246.831 214.87 244.892 214.595 243.987 214.505C243.031 214.409 241.373 214.222 240.716 214.019C240.511 213.955 240.096 213.699 240.096 213.226C240.096 212.891 240.29 212.6 240.656 212.363C241.234 211.991 242.436 211.773 243.665 211.773C245.134 211.773 246.368 212.094 247.157 212.447C247.424 212.579 247.737 212.744 247.989 212.947C248.271 213.175 248.66 213.652 248.804 214.315H250.129V210.725H248.656V211.141C248.656 211.28 248.518 211.449 248.247 211.311C247.584 210.971 245.723 210.213 243.431 210.201ZM253.692 210.866V212.177H255.085C255.681 212.177 255.647 212.639 255.647 212.639L255.63 219.573C255.63 219.573 255.663 220.035 255.065 220.035H253.674V221.345H260.981V220.035H259.521C258.924 220.035 258.956 219.57 258.956 219.57L258.939 212.639C258.939 212.639 258.905 212.177 259.501 212.177H260.963V210.866H253.692ZM173.178 210.869V212.171H174.463C175.023 212.171 175.383 212.527 175.596 212.755C175.765 212.936 179.44 217.111 179.53 217.226C179.62 217.341 179.62 217.359 179.62 217.411V219.545C179.62 220.069 179.068 220.035 179.068 220.035H177.664V221.344H184.846V220.031H183.35C183.35 220.031 182.822 220.068 182.822 219.57V217.455C182.822 217.455 182.816 217.28 182.873 217.214C182.972 217.1 186.694 212.86 186.859 212.671C187.217 212.259 187.412 212.172 187.893 212.172H189.213V210.869H183.296V212.172H184.182C184.446 212.172 184.518 212.437 184.404 212.579L181.898 215.509H181.818L179.371 212.579C179.192 212.36 179.337 212.171 179.53 212.171H180.399V210.869H173.178ZM203.8 210.869L197.041 210.869V212.175H198.185C199.012 212.175 199.071 212.635 199.071 213.036V219.165C199.071 219.537 199.095 220.035 198.564 220.035H197.145V221.344H202.84V220.035H201.722C201.135 220.035 201.102 219.771 201.092 219.191L201.096 212.519H201.147L205.13 221.348H207.374L211.323 212.519H211.376L211.424 219.191C211.412 219.771 211.381 220.035 210.796 220.035H209.676V221.344H216.578V220.035H215.159C214.63 220.035 214.652 219.537 214.652 219.165L214.618 213.036C214.618 212.635 214.674 212.175 215.503 212.175H216.648V210.869L210.012 210.869L206.902 217.719L203.8 210.869ZM155.567 210.869V212.175H156.713C157.539 212.175 157.598 212.635 157.598 213.036V219.165C157.598 219.537 157.622 220.035 157.091 220.035H155.672V221.344H161.722V220.035H160.247C159.661 220.035 159.629 219.771 159.619 219.191V213.943L167.915 221.344H170.024L169.912 212.985C169.927 212.379 169.961 212.171 170.587 212.171H171.911V210.869H165.755V212.171H167.11C167.724 212.171 167.834 212.418 167.839 212.985L167.915 217.36L160.717 210.869H155.567ZM218.657 210.869V212.171H219.933C220.549 212.171 220.658 212.418 220.663 212.985H220.665V218.044C220.665 221.406 224.152 222 227.144 222C230.196 222 233.149 221.375 233.149 218.149L233.126 212.683C233.159 212.309 233.277 212.171 233.785 212.171H235.11V210.869H229.013V212.171H230.225C230.816 212.171 230.939 212.401 230.953 212.921L230.947 218.195C230.947 219.412 230.504 220.742 227.144 220.742C224 220.742 224.133 218.573 224.133 218.207V212.915C224.15 212.363 224.207 212.171 224.808 212.171H226.097V210.869H218.657ZM146.097 211.737C147.369 211.737 148.595 212.201 149.415 213.007C150.217 213.795 150.63 214.895 150.63 216.091C150.63 217.329 150.245 218.337 149.415 219.165C148.586 219.993 147.395 220.441 146.097 220.441C144.824 220.441 143.603 219.987 142.776 219.165C141.986 218.381 141.568 217.271 141.568 216.091C141.568 214.907 141.985 213.796 142.776 213.007C143.597 212.187 144.824 211.737 146.097 211.737Z" fill="white"/>
</svg>
