<svg width="400" height="300" viewBox="0 0 400 300" fill="none" xmlns="http://www.w3.org/2000/svg">
<path d="M74.9204 122.977C78.1213 124.623 81.4804 125.94 84.9465 126.909C84.5309 129.448 84.2894 132.133 84.25 134.919H71.7862C71.921 130.695 72.9994 126.628 74.9204 122.977ZM79.852 116.293C80.6833 115.462 81.5595 114.692 82.4751 113.979C84.1202 115.17 85.8861 116.185 87.7437 117.006C86.7046 119.427 85.8621 122.18 85.2611 125.168C83.2079 124.587 81.1931 123.878 79.2285 123.045C78.0602 122.55 76.92 122.011 75.7966 121.438C76.9256 119.59 78.2849 117.866 79.852 116.293ZM93.3382 108.868C91.5071 110.418 89.8613 112.648 88.4908 115.4C86.9132 114.709 85.4064 113.866 83.9917 112.884C86.8303 110.972 90.0026 109.609 93.3438 108.868M94.602 110.114C95.8601 109.081 97.1633 108.463 98.4832 108.272V117.652C95.6359 117.566 92.8205 117.027 90.1421 116.057C90.1759 115.99 90.2096 115.917 90.2433 115.844C91.5239 113.361 92.9899 111.434 94.602 110.109M86.9798 125.617C87.5471 122.741 88.356 120.062 89.3895 117.675C92.3056 118.749 95.3768 119.343 98.4832 119.433V127.1C94.5683 127.038 90.7207 126.538 86.9798 125.617ZM98.4832 128.869V134.919H86.0194C86.0587 132.318 86.2777 129.779 86.6653 127.358C90.4623 128.285 94.4166 128.807 98.4832 128.869ZM112.07 127.358C112.458 129.779 112.677 132.318 112.716 134.919H100.253V128.869C104.319 128.802 108.273 128.285 112.07 127.358ZM100.253 119.427C103.443 119.332 106.499 118.72 109.346 117.669C110.38 120.062 111.189 122.741 111.762 125.611C107.995 126.535 104.136 127.032 100.258 127.094V119.427H100.253ZM100.253 108.272C101.573 108.463 102.876 109.081 104.134 110.114C105.746 111.44 107.212 113.372 108.493 115.849C108.526 115.917 108.56 115.995 108.599 116.063C105.92 117.03 103.105 117.568 100.258 117.658V108.272H100.253ZM114.75 112.884C113.336 113.867 111.829 114.71 110.251 115.4C108.88 112.648 107.234 110.412 105.398 108.862C108.739 109.604 111.911 110.966 114.75 112.878M118.884 116.293C120.451 117.866 121.81 119.59 122.939 121.438C121.816 122.011 120.676 122.55 119.507 123.045C117.53 123.881 115.519 124.589 113.475 125.168C112.874 122.18 112.031 119.427 110.992 117.006C112.862 116.181 114.626 115.164 116.266 113.979C117.182 114.687 118.052 115.462 118.889 116.293M126.95 134.919H114.486C114.441 132.133 114.205 129.448 113.789 126.909C117.289 125.932 120.642 124.606 123.815 122.972C125.742 126.628 126.82 130.689 126.95 134.919ZM128.725 134.919C128.258 119.107 115.295 106.435 99.3707 106.435C83.4468 106.435 70.4831 119.107 70.0169 134.919H70.0056V136.688H128.741V134.919H128.725ZM123.815 177.028C120.614 175.383 117.255 174.066 113.789 173.097C114.205 170.558 114.446 167.873 114.491 165.087H126.95C126.815 169.311 125.736 173.377 123.815 177.028ZM118.884 183.713C118.059 184.539 117.183 185.312 116.261 186.027C114.616 184.835 112.85 183.821 110.992 182.999C112.031 180.578 112.874 177.826 113.475 174.838C115.519 175.416 117.536 176.124 119.507 176.961C120.676 177.455 121.821 177.989 122.939 178.567C121.794 180.437 120.431 182.164 118.878 183.713M105.398 191.138C107.229 189.588 108.874 187.358 110.245 184.606C111.818 185.297 113.323 186.139 114.744 187.122C111.906 189.035 108.734 190.397 105.392 191.138M104.134 189.891C102.876 190.925 101.573 191.542 100.253 191.733V182.353C103.14 182.443 105.942 182.988 108.594 183.948C108.56 184.016 108.526 184.089 108.493 184.162C107.212 186.645 105.746 188.571 104.134 189.897M100.253 172.906C104.168 172.973 108.015 173.467 111.756 174.389C111.189 177.264 110.38 179.944 109.346 182.331C106.43 181.256 103.359 180.663 100.253 180.573V172.906ZM100.253 165.081H112.716C112.681 167.613 112.467 170.14 112.076 172.642C108.206 171.697 104.242 171.19 100.258 171.131V165.081H100.253ZM98.4832 171.131C94.4166 171.198 90.4623 171.715 86.6653 172.642C86.2777 170.221 86.0643 167.682 86.0194 165.081H98.4832V171.131ZM98.4832 180.573C95.2928 180.668 92.2372 181.28 89.3895 182.331C88.356 179.938 87.5471 177.259 86.9798 174.383C90.7467 173.459 94.6053 172.962 98.4832 172.9V180.573ZM98.4832 191.728C97.1633 191.537 95.8601 190.919 94.602 189.886C92.9899 188.56 91.5239 186.633 90.2433 184.151C90.2096 184.083 90.1759 184.01 90.1421 183.937C92.7933 182.977 95.5961 182.438 98.4832 182.342V191.728ZM83.9917 187.122C85.4064 186.14 86.9132 185.297 88.4908 184.606C89.8613 187.358 91.5071 189.588 93.3382 191.138C89.9985 190.397 86.828 189.034 83.9917 187.122ZM79.852 183.713C78.2793 182.14 76.9256 180.415 75.791 178.567C76.9144 177.995 78.0546 177.455 79.2229 176.967C81.2001 176.13 83.2109 175.422 85.2555 174.843C85.8565 177.832 86.699 180.584 87.7381 183.005C85.8799 183.825 84.1139 184.84 82.4695 186.032C81.5469 185.317 80.6708 184.544 79.8464 183.718M71.7862 165.081H84.2444C84.2894 167.867 84.5309 170.552 84.9465 173.091C81.4804 174.06 78.1213 175.377 74.9204 177.023C72.9994 173.366 71.921 169.305 71.7862 165.081ZM70.0169 163.273V163.312H70V165.081H70.0169C70.4831 180.893 83.4468 193.565 99.3707 193.565C115.295 193.565 128.258 180.893 128.725 165.081H128.741V163.273H70.0225M128.719 163.273C128.719 156.482 125.529 150.607 120.462 146.849C110.318 138.968 93.0292 137.272 91.8553 137.16V136.688H70.0112C70.0112 143.439 73.2522 149.399 78.2681 153.162C88.7716 161.318 106.88 162.829 106.88 162.829V163.261H128.719V163.273ZM160.904 154.656C161.78 160.296 163.42 163.144 168.515 163.144C172.508 163.144 175.356 161.722 175.356 158.712C175.356 155.701 174.042 154.662 165.448 151.977C157.18 149.405 154.5 145.9 154.5 140.917C154.5 135.278 159.101 130.026 167.419 130.026C174.154 130.026 180.282 133.149 181.652 140.479L174.48 142.288C173.547 139.334 171.744 136.868 167.419 136.868C163.476 136.868 161.78 138.564 161.78 140.861C161.78 143.159 163.038 143.709 171.525 146.607C180.175 149.562 182.585 152.629 182.585 158.212C182.585 164.89 177.221 169.979 168.515 169.979C159.808 169.979 154.281 165.548 153.13 156.347L160.904 154.651V154.656ZM185.595 130.841H193.094L198.02 156.898H198.183L206.996 130.841H210.72L219.533 156.898H219.696L224.622 130.841H231.957L224.515 169.159H216.853L208.967 145.349H208.642L200.705 169.159H193.038L185.595 130.841ZM237.979 130.841H262.232V137.688H245.37V146.282H260.699V152.848H245.37V162.318H262.232V169.159H237.979V130.841ZM269.618 130.841H293.872V137.688H277.01V146.282H292.339V152.848H277.01V162.318H293.872V169.159H269.618V130.841ZM316.699 148.36C319.929 148.36 322.339 146.282 322.339 143.052C322.339 139.002 319.491 137.688 316.699 137.688H308.65V148.36H316.699ZM301.258 130.841H316.806C324.524 130.841 330 135.492 330 143.046C330 150.601 325.074 155.201 316.806 155.201H308.65V169.159H301.258V130.841Z" fill="white"/>
</svg>
